<svg width="22" height="16" viewBox="0 0 22 16" fill="none" xmlns="http://www.w3.org/2000/svg">
<g clip-path="url(#clip0_4_14)">
<path d="M17.7864 1.78684C20.0149 5.07171 21.1155 8.77695 20.7041 13.0425C20.7023 13.0606 20.693 13.0771 20.6782 13.088C18.9906 14.3304 17.3555 15.0843 15.7433 15.5843C15.7308 15.5881 15.7174 15.5879 15.7049 15.5837C15.6925 15.5795 15.6817 15.5715 15.674 15.5608C15.3016 15.0413 14.9632 14.4936 14.6667 13.9184C14.6497 13.8845 14.6652 13.8437 14.7002 13.8304C15.2377 13.6273 15.7488 13.384 16.2403 13.0959C16.2791 13.0732 16.2815 13.0176 16.2458 12.9908C16.1414 12.9132 16.0381 12.8316 15.9392 12.75C15.9207 12.7349 15.8958 12.7319 15.8748 12.7421C12.6833 14.2196 9.18723 14.2196 5.95802 12.7421C5.93706 12.7327 5.91214 12.7359 5.89414 12.7507C5.79548 12.8323 5.69188 12.9132 5.58853 12.9908C5.55277 13.0176 5.55573 13.0732 5.5947 13.0959C6.08628 13.3786 6.59735 13.6273 7.13407 13.8314C7.16885 13.8447 7.18538 13.8845 7.16811 13.9184C6.87805 14.4943 6.53963 15.042 6.16028 15.5616C6.14375 15.5826 6.11662 15.5922 6.09097 15.5843C4.48647 15.0843 2.8514 14.3304 1.16378 13.088C1.14972 13.0771 1.13961 13.0598 1.13813 13.0418C0.794289 9.35212 1.49504 5.61622 4.0531 1.7861C4.05927 1.77596 4.06864 1.76805 4.07949 1.76335C5.33818 1.18422 6.68664 0.75816 8.09603 0.514836C8.12168 0.51088 8.14734 0.522749 8.16065 0.545499C8.33479 0.854599 8.53384 1.25099 8.66852 1.57493C10.1541 1.34743 11.6629 1.34743 13.1796 1.57493C13.3143 1.25791 13.5064 0.854599 13.6798 0.545499C13.686 0.534213 13.6956 0.525171 13.7072 0.519665C13.7188 0.514158 13.7318 0.512468 13.7444 0.514836C15.1546 0.758902 16.503 1.18496 17.7607 1.76335C17.7718 1.76805 17.781 1.77596 17.7864 1.78684ZM9.42378 8.80217C9.43932 7.71142 8.64607 6.80885 7.65032 6.80885C6.66272 6.80885 5.87712 7.70351 5.87712 8.80217C5.87712 9.90059 6.67826 10.7952 7.65032 10.7952C8.63818 10.7952 9.42378 9.90059 9.42378 8.80217ZM15.9804 8.80217C15.9959 7.71142 15.2027 6.80885 14.2072 6.80885C13.2193 6.80885 12.4337 7.70351 12.4337 8.80217C12.4337 9.90059 13.2348 10.7952 14.2072 10.7952C15.2027 10.7952 15.9804 9.90059 15.9804 8.80217Z" fill="white"/>
</g>
<defs>
<clipPath id="clip0_4_14">
<rect width="20.5795" height="15.0858" fill="white" transform="translate(0.665161 0.508667)"/>
</clipPath>
</defs>
</svg>
